<svg xmlns="http://www.w3.org/2000/svg" version="1.1" xmlns:xlink="http://www.w3.org/1999/xlink" width="2000" height="114" viewBox="0 0 2000 114"><svg xml:space="preserve" width="2000" height="114" data-version="2" data-id="lg_8D3yFqy2yDr9AqSt6T" viewBox="0 0 459 114" x="0" y="0"><rect width="100%" height="100%" fill="transparent"></rect><path d="M120.895 73.02q-1.4 0-2.14-.79-.74-.78-.74-2.18V43.86q0-1.44.76-2.18.77-.74 2.16-.74h10.85q5.22 0 8.05 2.49 2.84 2.5 2.84 7 0 2.93-1.29 5.04-1.28 2.12-3.71 3.24-2.43 1.13-5.89 1.13l.4-.68h1.49q1.84 0 3.21.9 1.38.9 2.41 2.84l3.38 6.25q.54.95.49 1.85-.04.9-.67 1.46-.63.56-1.85.56-1.21 0-1.98-.52-.76-.51-1.35-1.59l-4.54-8.37q-.81-1.53-1.92-2.05-1.1-.52-2.81-.52h-4.27v10.08q0 1.4-.72 2.18-.72.79-2.16.79m2.88-27.54V55.7h7.02q3.1 0 4.7-1.29 1.6-1.28 1.6-3.84 0-2.52-1.6-3.81-1.6-1.28-4.7-1.28z"></path><rect width="25.17" height="32.08" x="-12.59" y="-16.04" fill="none" rx="0" ry="0" transform="translate(131.1 57.48)"></rect><path d="M159.415 73.02q-1.4 0-2.14-.79-.74-.78-.74-2.18v-24.3h-8.78q-1.17 0-1.82-.65-.65-.65-.65-1.78 0-1.17.65-1.78.65-.6 1.82-.6h23.31q1.17 0 1.83.6.65.61.65 1.78 0 1.13-.65 1.78-.66.65-1.83.65h-8.77v24.3q0 1.4-.72 2.18-.72.79-2.16.79"></path><rect width="28.26" height="32.08" x="-14.13" y="-16.04" fill="none" rx="0" ry="0" transform="translate(159.91 57.48)"></rect><path d="M187.135 73.11q-3.74 0-6.44-1.39-2.7-1.4-4.16-3.96-1.46-2.57-1.46-6.08 0-3.42 1.41-5.98 1.42-2.57 3.92-4.03 2.5-1.46 5.69-1.46 2.34 0 4.21.76 1.87.77 3.19 2.21 1.33 1.44 2.03 3.48.7 2.05.7 4.62 0 .81-.56 1.23-.57.43-1.6.43h-14.45V59.7h12.65l-.72.68q0-2.07-.61-3.47-.61-1.39-1.76-2.14-1.14-.74-2.85-.74-1.89 0-3.22.88-1.33.88-2.03 2.47-.69 1.6-.69 3.81v.31q0 3.69 1.73 5.51 1.73 1.83 5.11 1.83 1.17 0 2.63-.3 1.46-.29 2.77-1.01.94-.54 1.66-.47.72.07 1.15.52.43.45.52 1.1.09.65-.25 1.33-.34.67-1.15 1.17-1.57.99-3.62 1.46t-3.8.47"></path><rect width="21.15" height="22.9" x="-10.57" y="-11.45" fill="none" rx="0" ry="0" transform="translate(186.15 62.16)"></rect><path d="M210.845 73.11q-3.46 0-6.03-1.42-2.56-1.41-3.96-4.02-1.39-2.61-1.39-6.12 0-2.66.78-4.75.79-2.09 2.28-3.56 1.48-1.46 3.6-2.25 2.11-.78 4.72-.78 1.49 0 3.22.4 1.73.41 3.26 1.35.72.45.95 1.08.22.63.09 1.28-.14.66-.57 1.13-.42.47-1.05.58-.63.12-1.4-.29-.99-.58-2.02-.88-1.04-.29-1.98-.29-1.49 0-2.61.47-1.13.48-1.92 1.35-.78.88-1.19 2.19-.4 1.3-.4 3.01 0 3.33 1.59 5.24 1.6 1.92 4.53 1.92.94 0 1.95-.27 1.02-.27 2.05-.86.77-.4 1.37-.27.61.14 1.02.61.4.47.49 1.12.09.66-.16 1.29-.24.63-.92 1.03-1.48.9-3.15 1.31-1.66.4-3.15.4"></path><rect width="18.99" height="22.9" x="-9.49" y="-11.45" fill="none" rx="0" ry="0" transform="translate(209.46 62.16)"></rect><path d="M224.705 73.02q-1.35 0-2.07-.74-.72-.74-.72-2.14V43.41q0-1.39.72-2.11t2.07-.72q1.35 0 2.09.72.75.72.75 2.11v11.66h-.63q.99-2.39 3.08-3.63 2.09-1.23 4.75-1.23 2.65 0 4.36.99 1.71.99 2.57 2.99.85 2 .85 5.06v10.89q0 1.4-.72 2.14-.72.74-2.07.74-1.35 0-2.09-.74-.74-.74-.74-2.14V59.52q0-2.56-.97-3.73t-2.99-1.17q-2.48 0-3.94 1.55t-1.46 4.12v9.85q0 2.88-2.84 2.88"></path><rect width="20.61" height="32.44" x="-10.3" y="-16.22" fill="none" rx="0" ry="0" transform="translate(232.72 57.3)"></rect><path d="M271.915 73.11q-1.98 0-3.96-.29t-3.74-.9q-1.75-.61-3.15-1.51-.81-.54-1.12-1.3-.32-.77-.21-1.51.12-.74.59-1.31.47-.56 1.19-.69.72-.14 1.58.4 1.98 1.17 4.18 1.71 2.21.54 4.64.54 3.55 0 5.17-1.19t1.62-3.08q0-1.58-1.15-2.48-1.14-.9-3.93-1.48l-4.95-1.04q-4.28-.9-6.37-3.04-2.09-2.13-2.09-5.64 0-2.21.9-4.01.9-1.8 2.54-3.1 1.64-1.31 3.91-2.01 2.28-.69 5.02-.69 2.7 0 5.13.67 2.43.68 4.37 1.98.72.5.96 1.22.25.72.12 1.41-.14.7-.63 1.2-.5.49-1.24.58-.74.09-1.69-.45-1.66-.94-3.37-1.35-1.71-.4-3.69-.4-2.07 0-3.56.58-1.48.59-2.27 1.64-.79 1.06-.79 2.5 0 1.62 1.08 2.59 1.08.97 3.69 1.51l4.91 1.03q4.45.95 6.63 2.97 2.19 2.03 2.19 5.4 0 2.16-.88 3.92-.88 1.75-2.52 3.01-1.64 1.26-3.94 1.94-2.29.67-5.17.67"></path><rect width="24.76" height="32.62" x="-12.38" y="-16.31" fill="none" rx="0" ry="0" transform="translate(272.55 57.3)"></rect><path d="M298.865 73.11q-3.42 0-5.94-1.39-2.52-1.4-3.91-3.99-1.4-2.58-1.4-6.09 0-2.66.79-4.75t2.27-3.6q1.49-1.51 3.56-2.3 2.07-.78 4.63-.78 3.42 0 5.94 1.39 2.52 1.4 3.92 3.96 1.39 2.57 1.39 6.08 0 2.65-.79 4.77-.78 2.11-2.27 3.62-1.48 1.51-3.55 2.29-2.07.79-4.64.79m0-4.27q1.67 0 2.93-.81 1.26-.81 1.95-2.41.7-1.6.7-3.98 0-3.6-1.53-5.38-1.53-1.78-4.05-1.78-1.66 0-2.92.79t-1.96 2.38q-.7 1.6-.7 3.99 0 3.55 1.53 5.37 1.53 1.83 4.05 1.83"></path><rect width="22.5" height="22.9" x="-11.25" y="-11.45" fill="none" rx="0" ry="0" transform="translate(299.37 62.16)"></rect><path d="M322.265 73.11q-3.73 0-5.62-2.14-1.89-2.13-1.89-6.27V43.41q0-1.39.72-2.11t2.07-.72q1.35 0 2.09.72.74.72.74 2.11v21.02q0 2.07.88 3.06.88.99 2.5.99.36 0 .67-.03.32-.02.63-.06.63-.09.86.33.22.43.22 1.74 0 1.12-.45 1.75-.45.63-1.48.77-.45.04-.95.09-.49.04-.99.04"></path><rect width="11.38" height="32.53" x="-5.69" y="-16.27" fill="none" rx="0" ry="0" transform="translate(320.94 57.34)"></rect><path d="M337.075 73.11q-2.75 0-4.55-1.01-1.8-1.01-2.68-3.04-.87-2.02-.87-5.04V53.13q0-1.44.72-2.14.72-.69 2.07-.69 1.35 0 2.09.69.74.7.74 2.14v10.98q0 2.34.95 3.47.94 1.12 3.01 1.12 2.25 0 3.69-1.55t1.44-4.12v-9.9q0-1.44.72-2.14.72-.69 2.07-.69 1.35 0 2.09.69.75.7.75 2.14v17.01q0 2.88-2.75 2.88-1.3 0-2.02-.74t-.72-2.14v-3.42l.63 1.35q-.95 2.43-2.86 3.74-1.91 1.3-4.52 1.3"></path><rect width="20.34" height="22.81" x="-10.17" y="-11.4" fill="none" rx="0" ry="0" transform="translate(339.64 62.2)"></rect><path d="M365.245 73.11q-2.93 0-4.89-.99-1.95-.99-2.9-2.9-.94-1.91-.94-4.75v-9.58h-2.34q-1.08 0-1.67-.57-.58-.56-.58-1.55 0-1.03.58-1.57.59-.54 1.67-.54h2.34v-4.1q0-1.39.74-2.11t2.09-.72q1.35 0 2.07.72.72.72.72 2.11v4.1h4.77q1.08 0 1.67.54.58.54.58 1.57 0 .99-.58 1.55-.59.57-1.67.57h-4.77v9.27q0 2.16.95 3.24.94 1.08 3.06 1.08.76 0 1.35-.14.58-.13 1.03-.18.54-.04.9.34t.36 1.55q0 .9-.29 1.6-.29.7-1.06.97-.58.18-1.53.33-.94.16-1.66.16"></path><rect width="17.86" height="29.38" x="-8.93" y="-14.69" fill="none" rx="0" ry="0" transform="translate(361.36 58.92)"></rect><path d="M375.235 72.98q-1.35 0-2.07-.81-.72-.81-.72-2.25V53.4q0-1.48.72-2.27t2.07-.79q1.35 0 2.09.79.74.79.74 2.27v16.52q0 1.44-.72 2.25t-2.11.81m0-26.82q-1.58 0-2.46-.79-.87-.79-.87-2.18 0-1.44.87-2.21.88-.76 2.46-.76 1.62 0 2.47.76.86.77.86 2.21 0 1.39-.86 2.18-.85.79-2.47.79"></path><rect width="6.66" height="32.76" x="-3.33" y="-16.38" fill="none" rx="0" ry="0" transform="translate(375.74 57.1)"></rect><path d="M393.955 73.11q-3.42 0-5.94-1.39-2.52-1.4-3.92-3.99-1.39-2.58-1.39-6.09 0-2.66.78-4.75.79-2.09 2.28-3.6 1.48-1.51 3.55-2.3 2.07-.78 4.64-.78 3.42 0 5.94 1.39 2.52 1.4 3.91 3.96 1.4 2.57 1.4 6.08 0 2.65-.79 4.77-.79 2.11-2.27 3.62-1.49 1.51-3.56 2.29-2.07.79-4.63.79m0-4.27q1.66 0 2.92-.81t1.96-2.41q.7-1.6.7-3.98 0-3.6-1.53-5.38-1.53-1.78-4.05-1.78-1.67 0-2.93.79-1.26.79-1.96 2.38-.69 1.6-.69 3.99 0 3.55 1.53 5.37 1.53 1.83 4.05 1.83"></path><rect width="22.5" height="22.9" x="-11.25" y="-11.45" fill="none" rx="0" ry="0" transform="translate(394.45 62.16)"></rect><path d="M412.625 73.02q-1.35 0-2.07-.74-.72-.74-.72-2.14V53.13q0-1.39.72-2.11t2.03-.72q1.3 0 2.02.72t.72 2.11v3.06l-.49-1.12q.99-2.39 3.08-3.63 2.09-1.23 4.75-1.23 2.65 0 4.36.99 1.71.99 2.57 2.99.85 2 .85 5.06v10.89q0 1.4-.72 2.14-.72.74-2.07.74-1.35 0-2.09-.74-.74-.74-.74-2.14V59.52q0-2.56-.97-3.73t-2.99-1.17q-2.48 0-3.94 1.55t-1.46 4.12v9.85q0 2.88-2.84 2.88"></path><rect width="20.61" height="22.81" x="-10.3" y="-11.4" fill="none" rx="0" ry="0" transform="translate(420.64 62.12)"></rect><path d="M444.215 73.11q-1.93 0-4.09-.4-2.16-.41-3.87-1.4-.72-.45-1.01-1.06-.3-.6-.23-1.21.07-.61.45-1.06.38-.45.99-.58.61-.14 1.33.22 1.8.86 3.37 1.19 1.58.34 3.11.34 2.16 0 3.21-.74 1.06-.74 1.06-1.96 0-1.03-.7-1.6-.69-.56-2.09-.83l-4.5-.85q-2.79-.54-4.25-2.05-1.46-1.51-1.46-3.89 0-2.16 1.19-3.74 1.19-1.57 3.31-2.43 2.11-.85 4.86-.85 1.98 0 3.71.42 1.73.43 3.35 1.33.68.36.93.95.24.58.11 1.19-.14.61-.54 1.08-.41.47-1.02.58-.6.12-1.37-.24-1.39-.72-2.67-1.04-1.29-.31-2.46-.31-2.2 0-3.26.76-1.06.77-1.06 2.03 0 .94.63 1.57.63.63 1.94.86l4.5.85q2.92.54 4.43 1.98 1.51 1.44 1.51 3.87 0 3.29-2.57 5.15-2.56 1.87-6.84 1.87"></path><rect width="18.65" height="22.9" x="-9.32" y="-11.45" fill="none" rx="0" ry="0" transform="translate(444.8 62.16)"></rect><path fill="#5f93bf" d="m100.428 75.623-22.731 26.016a16.024 16.024 0 0 1-12.019 5.472h-34.2l-5.93 5.974L4.374 92.483l15.166-15.11a23.12 23.12 0 0 1 23.957-5.413l3.33 1.145h20.5a6.456 6.456 0 0 1 6.502 6.673 6.639 6.639 0 0 1-6.73 6.26h-12.35a2.507 2.507 0 1 0 0 5.014h12.304a11.675 11.675 0 0 0 11.743-11.16v-.16l11.39-12.808a6.868 6.868 0 0 1 9.465-.927 6.707 6.707 0 0 1 .778 9.626M35.816 27.389a26.326 26.326 0 0 1 2.53-6.204l-2.85-4.132a3.834 3.834 0 0 1 .423-4.91l2.987-2.987a3.834 3.834 0 0 1 4.91-.424l4.144 2.908a26.326 26.326 0 0 1 6.204-2.576l.87-4.979a3.834 3.834 0 0 1 3.765-3.17h4.224a3.834 3.834 0 0 1 3.777 3.17l.87 4.98a26.326 26.326 0 0 1 6.158 2.563l4.143-2.907a3.834 3.834 0 0 1 4.91.423l2.988 2.988a3.834 3.834 0 0 1 .423 4.91l-2.907 4.143a26.326 26.326 0 0 1 2.576 6.204l5.036.882a3.834 3.834 0 0 1 3.17 3.777v4.223a3.834 3.834 0 0 1-3.17 3.766l-4.98.87a26.326 26.326 0 0 1-2.575 6.204l2.896 4.166a3.834 3.834 0 0 1-.423 4.91l-2.988 2.988a3.834 3.834 0 0 1-4.91.423l-4.19-2.93a26.326 26.326 0 0 1-6.157 2.621l-.87 4.98a3.834 3.834 0 0 1-3.777 3.17h-4.224a3.834 3.834 0 0 1-3.777-3.17l-.87-4.98a26.326 26.326 0 0 1-6.204-2.575l-4.143 2.907a3.834 3.834 0 0 1-4.91-.423l-2.988-2.988a3.834 3.834 0 0 1-.412-4.933l2.85-4.166a26.326 26.326 0 0 1-2.575-6.204l-4.98-.87a3.834 3.834 0 0 1-3.17-3.777v-4.224a3.834 3.834 0 0 1 3.17-3.777Zm31.808-8.745A30.904 30.904 0 0 1 71.7 31.327h5.849a16.94 16.94 0 0 0-9.912-12.683Zm0 31.008a16.94 16.94 0 0 0 9.935-12.683H71.71a30.904 30.904 0 0 1-4.074 12.683Zm-11.87-18.314h10.302a25.181 25.181 0 0 0-5.15-12.59 25.181 25.181 0 0 0-5.14 12.59Zm0 5.631a25.181 25.181 0 0 0 5.151 12.591 25.181 25.181 0 0 0 5.151-12.59Zm-11.491-5.63h5.849a30.904 30.904 0 0 1 4.074-12.683 16.94 16.94 0 0 0-9.923 12.682m0 5.631a16.94 16.94 0 0 0 9.935 12.683 30.904 30.904 0 0 1-4.086-12.683Z"></path></svg></svg>
