<svg xmlns="http://www.w3.org/2000/svg" version="1.1" xmlns:xlink="http://www.w3.org/1999/xlink" width="2000" height="98" viewBox="0 0 2000 98"><svg xml:space="preserve" width="2000" height="98" data-version="2" data-id="lg_8D3yFqy2yDr9AqSt6T" viewBox="0 0 550 98" x="0" y="0"><rect width="100%" height="100%" fill="transparent"></rect><path fill="#ff851b" d="M103.308 87.595c0 2.56-.688 3.443-3.197 3.677a326.72 326.72 0 0 1-12.864.944c-10.64.57-21.287 1.04-31.927 1.603-8.707.464-17.414.983-26.121 1.482-6.595.39-13.184.771-19.773 1.206-2.448.163-3.818-.934-3.834-3.398-.038-6.8-.016-13.597-.016-20.403V48.949h.007V5.528c0-3.264.854-4.202 4.105-4.029 10.573.538 21.146 1.162 31.725 1.76 6.707.381 13.424.794 20.141 1.175q16.051.915 32.1 1.798c1.99.106 3.99.096 5.98.163 2.477.09 3.638 1.258 3.638 3.728q.036 38.736.039 77.472Z"></path><circle r="30.17" stroke="#000" stroke-miterlimit="10" transform="matrix(.84 0 0 .84 54.07 48.64)"></circle><circle r="27.97" stroke="#000" stroke-miterlimit="10" transform="matrix(.84 0 0 .84 54.129 48.64)"></circle><path d="M126.87 57.91q-.6 0-1.01-.41-.4-.41-.4-1.01V35.78q0-.63.4-1.02.41-.4 1.01-.4h5.52q2.23 0 3.96.94 1.74.93 2.72 2.59.98 1.66.98 3.83 0 2.05-.98 3.65-.98 1.59-2.72 2.5-1.73.9-3.96.9h-4.1v7.72q0 .6-.39 1.01-.39.41-1.03.41m12.54 0q-.39 0-.69-.17-.3-.16-.54-.53l-5.55-8.92 2.78-.78 5.12 8.23q.51.81.15 1.49-.36.68-1.27.68m-11.12-20.89v9.1h4.1q1.45 0 2.55-.56 1.1-.56 1.73-1.57.63-1.01.63-2.27 0-1.39-.63-2.46t-1.73-1.66q-1.1-.58-2.55-.58zm14.98 20.89q-.78 0-1.17-.67-.39-.66-.06-1.38l8.62-20.53q.39-.97 1.32-.97 1 0 1.36.97l8.65 20.59q.3.72-.1 1.35-.41.64-1.19.64-.4 0-.76-.23t-.54-.65l-7.81-19.17h.88l-7.87 19.17q-.18.45-.54.67-.37.21-.79.21m15.92-5.34h-14.17l1.12-2.38h11.96zm13.29 5.34q-.57 0-.98-.41-.4-.41-.4-1.01v-7.23l-8.11-12.7q-.36-.54-.27-1.05.09-.51.46-.83.38-.32.92-.32.46 0 .73.2.27.2.51.56l7.84 12.51h-1.24l7.9-12.57q.24-.33.54-.52.3-.18.72-.18.52 0 .85.35.33.35.39.84.06.5-.27 1.01l-8.17 12.7v7.23q0 .6-.41 1.01-.4.41-1.01.41m20.41.29q-1.93 0-3.63-.59t-2.97-1.64q-1.27-1.06-1.87-2.47-.3-.58-.01-1.06.28-.48.95-.63.51-.12.99.13.48.26.72.77.4.82 1.24 1.46.84.65 2.03 1.04 1.2.4 2.55.4 1.51 0 2.73-.49 1.22-.48 1.96-1.4.74-.92.74-2.24 0-1.69-1.3-2.99-1.29-1.29-4.16-1.63-3.65-.39-5.73-2.2-2.08-1.81-2.08-4.46 0-1.93 1.06-3.3 1.05-1.37 2.89-2.09 1.84-.73 4.16-.73 1.75 0 3.12.51 1.37.52 2.38 1.41 1.01.89 1.74 2.03.36.6.28 1.13-.07.53-.55.83-.55.3-1.13.12-.59-.18-.89-.69-.46-.82-1.15-1.42t-1.64-.96q-.95-.37-2.25-.37-2.29-.03-3.77.89-1.47.92-1.47 2.76 0 .97.49 1.8.5.82 1.75 1.44t3.52.89q3.64.42 5.57 2.22 1.93 1.79 1.93 4.72 0 1.68-.65 2.95-.65 1.27-1.79 2.12-1.15.86-2.64 1.3-1.49.44-3.12.44m22.73.18q-2.83 0-5.02-1.07-2.18-1.07-3.42-2.96-1.24-1.88-1.24-4.29V35.77q0-.6.41-1.01.41-.41 1.01-.41.63 0 1.03.41.39.41.39 1.01v14.29q0 1.69.87 2.97.88 1.28 2.43 2.02 1.55.74 3.54.74 1.93 0 3.44-.74 1.5-.74 2.36-2.02.86-1.28.86-2.97V35.77q0-.6.41-1.01.41-.41 1.01-.41.63 0 1.01.41t.38 1.01v14.29q0 2.41-1.21 4.29-1.21 1.89-3.35 2.96t-4.91 1.07m16.87-.47q-.6 0-.99-.41t-.39-1.01V35.78q0-.63.39-1.02.39-.4.99-.4.67 0 1.12.52l13.62 18.05V35.78q0-.63.41-1.02.41-.4 1.01-.4.6 0 .99.4.4.39.4 1.02v20.71q0 .6-.4 1.01-.39.41-.99.41-.3 0-.6-.12t-.49-.37l-13.65-18.05v17.12q0 .6-.39 1.01-.39.41-1.03.41m30.49 0q-.57 0-1-.41-.42-.41-.42-1.01V34.36h2.84v22.13q0 .6-.4 1.01-.39.41-1.02.41m8.17-20.95h-16.34q-.57 0-.93-.37-.37-.36-.37-.93 0-.57.37-.93.36-.37.93-.37h16.34q.6 0 .96.37.36.36.36.93 0 .57-.36.93-.36.37-.96.37m20.04 20.95h-13.83q-.6 0-1.01-.41-.41-.41-.41-1.01V35.78q0-.63.41-1.02.41-.4 1.01-.4h13.83q.61 0 1 .38t.39.98q0 .54-.39.92t-1 .38h-12.42v7.71h8.96q.63 0 1.01.38.37.38.37.95t-.37.95q-.38.38-1.01.38h-8.96v7.86h12.42q.61 0 1 .38t.39.92q0 .6-.39.98t-1 .38m16.31.3q-2.44 0-4.56-.92-2.13-.92-3.71-2.58-1.58-1.66-2.49-3.86-.9-2.2-.9-4.73 0-2.5.89-4.69.89-2.18 2.48-3.84 1.6-1.66 3.71-2.59 2.11-.94 4.58-.94 2.26 0 3.98.62 1.72.62 3.41 2 .24.19.35.41.1.23.09.45-.02.23-.11.44-.03.45-.38.72-.34.28-.81.29-.47.02-.92-.32-1.15-.99-2.41-1.5-1.27-.52-3.2-.52-1.84 0-3.45.76-1.61.75-2.85 2.05-1.23 1.29-1.93 3.01-.69 1.72-.69 3.65 0 1.99.69 3.69.7 1.71 1.93 3.02 1.24 1.31 2.85 2.03 1.61.73 3.45.73 1.6 0 3.02-.53 1.41-.53 2.68-1.49.48-.37.97-.32.48.04.81.39.33.35.33.95 0 .27-.09.53-.09.25-.33.47-1.57 1.35-3.45 1.99-1.89.63-3.94.63m14.19-.3q-.6 0-1.01-.41-.41-.41-.41-1.01V35.78q0-.63.41-1.02.41-.4 1.01-.4.63 0 1.03.4.39.39.39 1.02v8.95h14.26v-8.95q0-.63.4-1.02.41-.4 1.01-.4.64 0 1.03.4.39.39.39 1.02v20.71q0 .6-.39 1.01-.39.41-1.03.41-.6 0-1.01-.41-.4-.41-.4-1.01v-9.25h-14.26v9.25q0 .6-.39 1.01-.4.41-1.03.41m40.77.29q-1.93 0-3.64-.59-1.7-.59-2.96-1.64-1.27-1.06-1.87-2.47-.3-.58-.02-1.06.29-.48.95-.63.51-.12 1 .13.48.26.72.77.39.82 1.24 1.46.84.65 2.03 1.04 1.19.4 2.55.4 1.5 0 2.73-.49 1.22-.48 1.95-1.4.74-.92.74-2.24 0-1.69-1.29-2.99-1.3-1.29-4.16-1.63-3.65-.39-5.73-2.2-2.08-1.81-2.08-4.46 0-1.93 1.05-3.3 1.06-1.37 2.9-2.09 1.84-.73 4.16-.73 1.75 0 3.12.51 1.37.52 2.38 1.41 1.01.89 1.73 2.03.37.6.29 1.13-.08.53-.56.83-.54.3-1.13.12-.59-.18-.89-.69-.45-.82-1.14-1.42-.7-.6-1.65-.96-.95-.37-2.24-.37-2.29-.03-3.77.89t-1.48 2.76q0 .97.5 1.8.5.82 1.75 1.44t3.51.89q3.65.42 5.58 2.22 1.93 1.79 1.93 4.72 0 1.68-.65 2.95-.65 1.27-1.79 2.12-1.15.86-2.64 1.3-1.49.44-3.12.44m23.93.01q-2.65 0-4.85-.89-2.2-.89-3.78-2.52-1.59-1.63-2.48-3.83-.89-2.2-.89-4.85 0-2.62.89-4.82t2.48-3.83q1.58-1.63 3.78-2.52 2.2-.89 4.85-.89 2.63 0 4.83.89t3.79 2.52q1.6 1.63 2.49 3.83.89 2.2.89 4.82 0 2.65-.89 4.85-.89 2.2-2.49 3.83-1.59 1.63-3.79 2.52-2.2.89-4.83.89m0-2.59q2.02 0 3.71-.73 1.69-.72 2.94-2t1.93-3.02q.68-1.73.68-3.75t-.68-3.74q-.68-1.72-1.93-3.01-1.25-1.3-2.94-2.01-1.69-.71-3.71-.71t-3.71.71q-1.68.71-2.92 2.01-1.24 1.29-1.93 3.01-.69 1.72-.69 3.74 0 2.02.69 3.75.69 1.74 1.93 3.02t2.92 2q1.69.73 3.71.73m30.96 2.29h-12.69q-.57 0-.98-.41-.41-.41-.41-1.01V35.78q0-.6.41-1.01.41-.41.98-.41.6 0 1.01.41.41.41.41 1.01v19.35h11.27q.57 0 1 .4.42.39.42.99 0 .57-.42.98-.43.41-1 .41m14.86.47q-2.83 0-5.02-1.07-2.18-1.07-3.42-2.96-1.23-1.88-1.23-4.29V35.77q0-.6.4-1.01.41-.41 1.01-.41.64 0 1.03.41t.39 1.01v14.29q0 1.69.87 2.97.88 1.28 2.43 2.02 1.55.74 3.54.74 1.93 0 3.44-.74t2.37-2.02q.86-1.28.86-2.97V35.77q0-.6.4-1.01.41-.41 1.01-.41.63 0 1.01.41t.38 1.01v14.29q0 2.41-1.21 4.29-1.2 1.89-3.34 2.96-2.14 1.07-4.92 1.07m22.4-.47q-.57 0-.99-.41-.43-.41-.43-1.01V34.36h2.84v22.13q0 .6-.39 1.01-.4.41-1.03.41m8.17-20.95h-16.34q-.57 0-.93-.37-.36-.36-.36-.93 0-.57.36-.93.36-.37.93-.37h16.34q.6 0 .96.37.37.36.37.93 0 .57-.37.93-.36.37-.96.37m6.21 20.95q-.6 0-1.01-.41-.41-.41-.41-1.01V35.78q0-.63.41-1.02.41-.4 1.01-.4.63 0 1.02.4.4.39.4 1.02v20.71q0 .6-.4 1.01-.39.41-1.02.41m18.33.3q-2.65 0-4.86-.89-2.2-.89-3.78-2.52-1.58-1.63-2.47-3.83-.89-2.2-.89-4.85 0-2.62.89-4.82t2.47-3.83q1.58-1.63 3.78-2.52 2.21-.89 4.86-.89 2.62 0 4.82.89t3.8 2.52q1.6 1.63 2.49 3.83.89 2.2.89 4.82 0 2.65-.89 4.85-.89 2.2-2.49 3.83t-3.8 2.52q-2.2.89-4.82.89m0-2.59q2.02 0 3.71-.73 1.68-.72 2.94-2 1.25-1.28 1.92-3.02.68-1.73.68-3.75t-.68-3.74q-.67-1.72-1.92-3.01-1.26-1.3-2.94-2.01-1.69-.71-3.71-.71t-3.71.71q-1.69.71-2.92 2.01-1.24 1.29-1.93 3.01-.7 1.72-.7 3.74 0 2.02.7 3.75.69 1.74 1.93 3.02 1.23 1.28 2.92 2 1.69.73 3.71.73m18.27 2.29q-.61 0-1-.41t-.39-1.01V35.78q0-.63.39-1.02.39-.4 1-.4.66 0 1.11.52l13.63 18.05V35.78q0-.63.4-1.02.41-.4 1.01-.4.61 0 1 .4.39.39.39 1.02v20.71q0 .6-.39 1.01-.39.41-1 .41-.3 0-.6-.12t-.48-.37L507 39.37v17.12q0 .6-.39 1.01-.39.41-1.02.41m30.95.29q-1.92 0-3.63-.59-1.7-.59-2.97-1.64-1.26-1.06-1.87-2.47-.3-.58-.01-1.06.29-.48.95-.63.51-.12.99.13.49.26.73.77.39.82 1.23 1.46.85.65 2.04 1.04 1.19.4 2.54.4 1.51 0 2.73-.49 1.22-.48 1.96-1.4.74-.92.74-2.24 0-1.69-1.3-2.99-1.29-1.29-4.16-1.63-3.64-.39-5.72-2.2-2.08-1.81-2.08-4.46 0-1.93 1.05-3.3 1.06-1.37 2.9-2.09 1.84-.73 4.16-.73 1.74 0 3.12.51 1.37.52 2.38 1.41 1.01.89 1.73 2.03.36.6.29 1.13-.08.53-.56.83-.54.3-1.13.12-.59-.18-.89-.69-.45-.82-1.15-1.42-.69-.6-1.64-.96-.95-.37-2.24-.37-2.3-.03-3.77.89-1.48.92-1.48 2.76 0 .97.5 1.8.5.82 1.75 1.44t3.51.89q3.65.42 5.58 2.22 1.92 1.79 1.92 4.72 0 1.68-.64 2.95-.65 1.27-1.8 2.12-1.14.86-2.64 1.3-1.49.44-3.12.44"></path></svg></svg>